{
  "accessors": [
    {
      "bufferView": 2,
      "componentType": 5126,
      "count": 648,
      "max": [
        1.8244349956512451,
        48.11408996582031,
        1.8244349956512451
      ],
      "min": [
        -1.8244349956512451,
        -1.0,
        -1.8244349956512451
      ],
      "type": "VEC3"
    },
    {
      "bufferView": 2,
      "byteOffset": 7776,
      "componentType": 5126,
      "count": 648,
      "max": [
        0.9659047722816467,
        1.0,
        0.9659046530723572
      ],
      "min": [
        -0.9659046530723572,
        -1.0,
        -0.9659047722816467
      ],
      "type": "VEC3"
    },
    {
      "bufferView": 1,
      "componentType": 5126,
      "count": 648,
      "max": [
        1.0,
        0.9900000095367432
      ],
      "min": [
        7.450580596923828e-08,
        0.0
      ],
      "type": "VEC2"
    },
    {
      "bufferView": 0,
      "componentType": 5125,
      "count": 996,
      "type": "SCALAR"
    },
    {
      "bufferView": 2,
      "byteOffset": 15552,
      "componentType": 5126,
      "count": 168,
      "max": [
        1.925087809562683,
        2.1954002380371094,
        1.3541380167007446
      ],
      "min": [
        -0.2562580704689026,
        -0.3645554184913635,
        -1.5157008171081543
      ],
      "type": "VEC3"
    },
    {
      "bufferView": 2,
      "byteOffset": 17568,
      "componentType": 5126,
      "count": 168,
      "max": [
        0.998253583908081,
        0.9986602663993835,
        0.8884984254837036
      ],
      "min": [
        -0.10353737324476242,
        -0.40177327394485474,
        -0.7565011382102966
      ],
      "type": "VEC3"
    },
    {
      "bufferView": 1,
      "byteOffset": 5184,
      "componentType": 5126,
      "count": 168,
      "max": [
        1.0,
        1.0
      ],
      "min": [
        0.0,
        0.0
      ],
      "type": "VEC2"
    },
    {
      "bufferView": 0,
      "byteOffset": 3984,
      "componentType": 5125,
      "count": 252,
      "type": "SCALAR"
    },
    {
      "bufferView": 2,
      "byteOffset": 19584,
      "componentType": 5126,
      "count": 168,
      "max": [
        1.925087809562683,
        2.1954002380371094,
        1.3541380167007446
      ],
      "min": [
        -0.2562580704689026,
        -0.3645554184913635,
        -1.5157008171081543
      ],
      "type": "VEC3"
    },
    {
      "bufferView": 2,
      "byteOffset": 21600,
      "componentType": 5126,
      "count": 168,
      "max": [
        0.998253583908081,
        0.9986602663993835,
        0.8884984254837036
      ],
      "min": [
        -0.10353737324476242,
        -0.40177327394485474,
        -0.7565011382102966
      ],
      "type": "VEC3"
    },
    {
      "bufferView": 1,
      "byteOffset": 6528,
      "componentType": 5126,
      "count": 168,
      "max": [
        1.0,
        1.0
      ],
      "min": [
        0.0,
        0.0
      ],
      "type": "VEC2"
    },
    {
      "bufferView": 0,
      "byteOffset": 4992,
      "componentType": 5125,
      "count": 252,
      "type": "SCALAR"
    },
    {
      "bufferView": 2,
      "byteOffset": 23616,
      "componentType": 5126,
      "count": 168,
      "max": [
        1.925087809562683,
        2.1954002380371094,
        1.3541380167007446
      ],
      "min": [
        -0.2562580704689026,
        -0.3645554184913635,
        -1.5157008171081543
      ],
      "type": "VEC3"
    },
    {
      "bufferView": 2,
      "byteOffset": 25632,
      "componentType": 5126,
      "count": 168,
      "max": [
        0.998253583908081,
        0.9986602663993835,
        0.8884984254837036
      ],
      "min": [
        -0.10353737324476242,
        -0.40177327394485474,
        -0.7565011382102966
      ],
      "type": "VEC3"
    },
    {
      "bufferView": 1,
      "byteOffset": 7872,
      "componentType": 5126,
      "count": 168,
      "max": [
        1.0,
        1.0
      ],
      "min": [
        0.0,
        0.0
      ],
      "type": "VEC2"
    },
    {
      "bufferView": 0,
      "byteOffset": 6000,
      "componentType": 5125,
      "count": 252,
      "type": "SCALAR"
    },
    {
      "bufferView": 2,
      "byteOffset": 27648,
      "componentType": 5126,
      "count": 168,
      "max": [
        1.925087809562683,
        2.1954002380371094,
        1.3541380167007446
      ],
      "min": [
        -0.2562580704689026,
        -0.3645554184913635,
        -1.5157008171081543
      ],
      "type": "VEC3"
    },
    {
      "bufferView": 2,
      "byteOffset": 29664,
      "componentType": 5126,
      "count": 168,
      "max": [
        0.998253583908081,
        0.9986602663993835,
        0.8884984254837036
      ],
      "min": [
        -0.10353737324476242,
        -0.40177327394485474,
        -0.7565011382102966
      ],
      "type": "VEC3"
    },
    {
      "bufferView": 1,
      "byteOffset": 9216,
      "componentType": 5126,
      "count": 168,
      "max": [
        1.0,
        1.0
      ],
      "min": [
        0.0,
        0.0
      ],
      "type": "VEC2"
    },
    {
      "bufferView": 0,
      "byteOffset": 7008,
      "componentType": 5125,
      "count": 252,
      "type": "SCALAR"
    }
  ],
  "asset": {
    "extras": {
      "author": "imlcbaylor (https://sketchfab.com/imlcbaylor)",
      "license": "CC-BY-4.0 (http://creativecommons.org/licenses/by/4.0/)",
      "source": "https://sketchfab.com/3d-models/pineapple-low-poly-3d964ed1abca47a895ec51b75d6f902e",
      "title": "Pineapple Low Poly"
    },
    "generator": "Sketchfab-11.51.1",
    "version": "2.0"
  },
  "bufferViews": [
    {
      "buffer": 0,
      "byteLength": 8016,
      "name": "floatBufferViews",
      "target": 34963
    },
    {
      "buffer": 0,
      "byteLength": 10560,
      "byteOffset": 8016,
      "byteStride": 8,
      "name": "floatBufferViews",
      "target": 34962
    },
    {
      "buffer": 0,
      "byteLength": 31680,
      "byteOffset": 18576,
      "byteStride": 12,
      "name": "floatBufferViews",
      "target": 34962
    }
  ],
  "buffers": [
    {
      "byteLength": 50256,
      "uri": "scene.bin"
    }
  ],
  "materials": [
    {
      "doubleSided": true,
      "name": "Material.002",
      "pbrMetallicRoughness": {
        "baseColorFactor": [
          0.8,
          0.436139,
          0.0185666,
          1.0
        ],
        "metallicFactor": 0.0,
        "roughnessFactor": 0.5
      }
    },
    {
      "doubleSided": true,
      "name": "Material.001",
      "pbrMetallicRoughness": {
        "baseColorFactor": [
          0.0207454,
          0.8,
          0.0,
          1.0
        ],
        "metallicFactor": 0.0,
        "roughnessFactor": 0.5
      }
    }
  ],
  "meshes": [
    {
      "name": "Object_0",
      "primitives": [
        {
          "attributes": {
            "NORMAL": 1,
            "POSITION": 0,
            "TEXCOORD_0": 2
          },
          "indices": 3,
          "material": 0,
          "mode": 4
        }
      ]
    },
    {
      "name": "Object_1",
      "primitives": [
        {
          "attributes": {
            "NORMAL": 5,
            "POSITION": 4,
            "TEXCOORD_0": 6
          },
          "indices": 7,
          "material": 1,
          "mode": 4
        }
      ]
    },
    {
      "name": "Object_2",
      "primitives": [
        {
          "attributes": {
            "NORMAL": 9,
            "POSITION": 8,
            "TEXCOORD_0": 10
          },
          "indices": 11,
          "material": 1,
          "mode": 4
        }
      ]
    },
    {
      "name": "Object_3",
      "primitives": [
        {
          "attributes": {
            "NORMAL": 13,
            "POSITION": 12,
            "TEXCOORD_0": 14
          },
          "indices": 15,
          "material": 1,
          "mode": 4
        }
      ]
    },
    {
      "name": "Object_4",
      "primitives": [
        {
          "attributes": {
            "NORMAL": 17,
            "POSITION": 16,
            "TEXCOORD_0": 18
          },
          "indices": 19,
          "material": 1,
          "mode": 4
        }
      ]
    }
  ],
  "nodes": [
    {
      "children": [
        1
      ],
      "matrix": [
        1.0,
        0.0,
        0.0,
        0.0,
        0.0,
        2.220446049250313e-16,
        -1.0,
        0.0,
        0.0,
        1.0,
        2.220446049250313e-16,
        0.0,
        0.0,
        0.0,
        0.0,
        1.0
      ],
      "name": "Sketchfab_model"
    },
    {
      "children": [
        2
      ],
      "name": "root"
    },
    {
      "children": [
        3,
        5,
        7,
        9,
        11
      ],
      "matrix": [
        1.0,
        0.0,
        0.0,
        0.0,
        0.0,
        2.220446049250313e-16,
        1.0,
        0.0,
        0.0,
        -1.0,
        2.220446049250313e-16,
        0.0,
        0.0,
        0.0,
        0.0,
        1.0
      ],
      "name": "GLTF_SceneRootNode"
    },
    {
      "children": [
        4
      ],
      "matrix": [
        1.0,
        0.0,
        0.0,
        0.0,
        0.0,
        0.10000000149011612,
        0.0,
        0.0,
        0.0,
        0.0,
        1.0,
        0.0,
        0.0,
        0.0,
        0.0,
        1.0
      ],
      "name": "Cylinder_2"
    },
    {
      "mesh": 0,
      "name": "Object_4"
    },
    {
      "children": [
        6
      ],
      "matrix": [
        0.41888450119820736,
        1.1782263726854336,
        -0.571617329464498,
        0.0,
        -0.7615034803173552,
        0.7073999785780636,
        0.9000694673941049,
        0.0,
        1.0653995503177103,
        0.042375626946264365,
        0.8680762721166154,
        0.0,
        0.2839740514755249,
        3.486098051071167,
        -0.19617870450019836,
        1.0
      ],
      "name": "Plane.005_3"
    },
    {
      "mesh": 1,
      "name": "Object_6"
    },
    {
      "children": [
        8
      ],
      "matrix": [
        -1.1491598753753582e-08,
        1.404280565881419,
        -0.823030514623267,
        0.0,
        -0.11276117277508921,
        0.8210529880978885,
        1.4009064494629413,
        0.0,
        1.6237821387889417,
        0.057016865759932936,
        0.09728394808173109,
        0.0,
        0.1259142905473709,
        4.000480651855469,
        -0.15101665258407593,
        1.0
      ],
      "name": "Plane.001_4"
    },
    {
      "mesh": 2,
      "name": "Object_8"
    },
    {
      "children": [
        10
      ],
      "matrix": [
        -0.2868076445663647,
        1.1579252237810505,
        -0.6150610874802213,
        0.0,
        0.40391670362145937,
        0.6770141686559377,
        1.0862098057840006,
        0.0,
        1.2473740010090197,
        0.047014222287798814,
        -0.4931501137583857,
        0.0,
        -0.030861210078001022,
        4.357174873352051,
        -0.14167822897434235,
        1.0
      ],
      "name": "Plane.002_5"
    },
    {
      "mesh": 3,
      "name": "Object_10"
    },
    {
      "children": [
        12
      ],
      "matrix": [
        -0.3592555097684659,
        0.8001795350971928,
        -0.3014512170175775,
        0.0,
        0.5701992377722298,
        0.4678479838148822,
        0.5623303366521616,
        0.0,
        0.637207053090269,
        0.03248903172092875,
        -0.6731539795905466,
        0.0,
        -0.13859157264232635,
        4.915149688720703,
        -0.048559948801994324,
        1.0
      ],
      "name": "Plane.003_6"
    },
    {
      "mesh": 4,
      "name": "Object_12"
    }
  ],
  "scene": 0,
  "scenes": [
    {
      "name": "Sketchfab_Scene",
      "nodes": [
        0
      ]
    }
  ]
}
